<svg xmlns="http://www.w3.org/2000/svg"><symbol id="check-icon" viewBox="0 0 14 11"><path d="M4.9585 11L0.208496 6.25002L1.396 5.06252L4.9585 8.62502L12.6043 0.979187L13.7918 2.16669L4.9585 11Z"></path></symbol><symbol id="cross-icon" viewBox="0 0 40 40"><path d="M19.9995 21.7562L11.5445 30.2117C11.3137 30.4422 11.0236 30.5603 10.6741 30.5658C10.3249 30.5711 10.0295 30.4531 9.78786 30.2117C9.54648 29.97 9.42578 29.6772 9.42578 29.3333C9.42578 28.9894 9.54648 28.6967 9.78786 28.455L18.2433 20L9.78786 11.545C9.55731 11.3142 9.43925 11.024 9.4337 10.6746C9.42842 10.3254 9.54648 10.03 9.78786 9.78833C10.0295 9.54694 10.3223 9.42625 10.6662 9.42625C11.0101 9.42625 11.3029 9.54694 11.5445 9.78833L19.9995 18.2437L28.4545 9.78833C28.6854 9.55777 28.9755 9.43972 29.3249 9.43416C29.6741 9.42889 29.9695 9.54694 30.2112 9.78833C30.4526 10.03 30.5733 10.3228 30.5733 10.6667C30.5733 11.0106 30.4526 11.3033 30.2112 11.545L21.7558 20L30.2112 28.455C30.4418 28.6858 30.5598 28.976 30.5654 29.3254C30.5706 29.6746 30.4526 29.97 30.2112 30.2117C29.9695 30.4531 29.6768 30.5737 29.3329 30.5737C28.989 30.5737 28.6962 30.4531 28.4545 30.2117L19.9995 21.7562Z"></path></symbol><symbol id="icon-date" viewBox="0 0 26 28"><path d="M20.8 4H25.6V28H0V4H4.8V2.4C4.8 1.744 5.04 1.184 5.504 0.704C5.968 0.24 6.544 0 7.2 0C7.856 0 8.432 0.24 8.896 0.704C9.36 1.184 9.6 1.744 9.6 2.4V4H16V2.4C16 1.744 16.24 1.184 16.704 0.704C17.168 0.24 17.744 0 18.4 0C19.056 0 19.632 0.24 20.096 0.704C20.56 1.184 20.8 1.744 20.8 2.4V4ZM6.4 2.4V6.4C6.39805 6.5056 6.4174 6.6105 6.45692 6.70844C6.49643 6.80639 6.55528 6.89536 6.62996 6.97004C6.70464 7.04472 6.79361 7.10357 6.89156 7.14308C6.9895 7.1826 7.09441 7.20195 7.2 7.2C7.30559 7.20195 7.4105 7.1826 7.50844 7.14308C7.60639 7.10357 7.69536 7.04472 7.77004 6.97004C7.84472 6.89536 7.90357 6.80639 7.94308 6.70844C7.9826 6.6105 8.00195 6.5056 8 6.4V2.4C8 2.176 7.92 1.984 7.76 1.84C7.616 1.68 7.424 1.6 7.2 1.6C6.976 1.6 6.784 1.68 6.64 1.84C6.48 1.984 6.4 2.176 6.4 2.4ZM17.6 2.4V6.4C17.6 6.624 17.68 6.816 17.824 6.976C17.984 7.12 18.176 7.2 18.4 7.2C18.624 7.2 18.816 7.12 18.976 6.976C19.12 6.816 19.2 6.624 19.2 6.4V2.4C19.202 2.2944 19.1826 2.1895 19.1431 2.09156C19.1036 1.99361 19.0447 1.90464 18.97 1.82996C18.8954 1.75528 18.8064 1.69643 18.7084 1.65692C18.6105 1.6174 18.5056 1.59805 18.4 1.6C18.2944 1.59805 18.1895 1.6174 18.0916 1.65692C17.9936 1.69643 17.9046 1.75528 17.83 1.82996C17.7553 1.90464 17.6964 1.99361 17.6569 2.09156C17.6174 2.1895 17.598 2.2944 17.6 2.4ZM24 26.4V10.4H1.6V26.4H24ZM8 12V15.2H4.8V12H8ZM11.2 12H14.4V15.2H11.2V12ZM17.6 15.2V12H20.8V15.2H17.6ZM8 16.8V20H4.8V16.8H8ZM11.2 16.8H14.4V20H11.2V16.8ZM17.6 20V16.8H20.8V20H17.6ZM8 21.6V24.8H4.8V21.6H8ZM14.4 24.8H11.2V21.6H14.4V24.8ZM20.8 24.8H17.6V21.6H20.8V24.8Z"></path></symbol><symbol id="icon-mail" viewBox="0 0 27 22"><path clip-rule="evenodd" d="M2.66667 0H24C25.4728 0 26.6667 1.19391 26.6667 2.66667V18.6667C26.6667 20.1395 25.4728 21.3333 24 21.3333H2.66667C1.19391 21.3333 0 20.1395 0 18.6667V2.66667C0 1.19391 1.19391 0 2.66667 0ZM15.5333 15.2667L24 9.33333V6.53333L14.2 13.4C13.6788 13.7617 12.9879 13.7617 12.4667 13.4L2.66667 6.53333V9.33333L11.1333 15.2667C12.4547 16.1903 14.212 16.1903 15.5333 15.2667Z"></path></symbol><symbol id="icon-phone" viewBox="0 0 32 32"><path d="M22.6667 28.0004C20.4617 27.9984 18.2911 27.4534 16.3467 26.4137L15.7467 26.0804C11.601 23.8514 8.20225 20.4526 5.97333 16.307L5.64 15.707C4.57309 13.7516 4.00951 11.5613 4 9.33369V8.44036C3.99944 7.72964 4.28261 7.04809 4.78667 6.54702L7.04 4.29369C7.25884 4.07316 7.56775 3.96686 7.87595 4.00604C8.18415 4.04521 8.45664 4.22542 8.61333 4.49369L11.6133 9.64036C11.9167 10.1642 11.8291 10.8267 11.4 11.2537L8.88 13.7737C8.67072 13.9806 8.62196 14.3004 8.76 14.5604L9.22667 15.4404C10.9027 18.5449 13.4524 21.09 16.56 22.7604L17.44 23.2404C17.7 23.3784 18.0197 23.3296 18.2267 23.1204L20.7467 20.6004C21.1736 20.1713 21.8361 20.0837 22.36 20.387L27.5067 23.387C27.7749 23.5437 27.9552 23.8162 27.9943 24.1244C28.0335 24.4326 27.9272 24.7416 27.7067 24.9604L25.4533 27.2137C24.9523 27.7177 24.2707 28.0009 23.56 28.0004H22.6667Z"></path></symbol><symbol id="icon-pin" viewBox="0 0 20 27"><path d="M9.65768 0C4.33239 0 0 4.3324 0 9.6576C0 16.2664 8.64261 25.9684 9.01061 26.3781C9.35621 26.7631 9.95968 26.7624 10.3047 26.3781C10.6726 25.9684 19.3153 16.2664 19.3153 9.6576C19.3151 4.3324 14.9829 0 9.65768 0ZM9.65768 14.5167C6.97837 14.5167 4.79869 12.3369 4.79869 9.6576C4.79869 6.97833 6.97843 4.79864 9.65768 4.79864C12.3369 4.79864 14.5166 6.97839 14.5166 9.65765C14.5166 12.3369 12.3369 14.5167 9.65768 14.5167Z"></path></symbol><symbol id="icon-tg" viewBox="0 0 24 24"><mask id="mask0_270_25354" style="mask-type:luminance" maskUnits="userSpaceOnUse" x="0" y="0" width="24" height="24"><path d="M23.9991 0H0V23.9865H23.9991V0Z"></path></mask><g mask="url(#mask0_270_25354)"><path d="M23.6317 2.57334C23.3388 2.21372 22.8991 2.01562 22.3936 2.01562C22.1209 2.01562 21.832 2.07272 21.5349 2.18527L1.21668 9.88355C0.136351 10.293 -0.00905461 10.9092 0.000414129 11.2401C0.00983602 11.5694 0.188476 12.1719 1.27588 12.5197L5.58488 14.0988L7.85583 19.2971C8.08411 20.016 8.56111 20.5204 9.16992 20.684C9.31027 20.7218 9.45356 20.7403 9.59789 20.7403C10.0923 20.7403 10.5986 20.5226 11.0358 20.112L12.9173 18.3443L17.508 21.504C17.9214 21.8096 18.3713 21.9709 18.8099 21.9709C19.7003 21.9708 20.4104 21.3191 20.619 20.3104L23.942 4.23872C24.0786 3.5782 23.9684 2.98678 23.6317 2.57334ZM7.01292 13.8548L12.8766 10.7104L8.79 14.4589C8.6445 14.5924 8.56345 14.7804 8.56322 14.9763C8.56294 14.9835 8.56205 14.9906 8.562 14.9978L8.54789 17.3684L7.01292 13.8548ZM10.073 19.087C10.0296 19.1277 9.98616 19.1635 9.94322 19.1947L9.96042 16.309L11.7319 17.5283L10.073 19.087ZM22.5649 3.95395L19.2419 20.0256C19.2084 20.1877 19.0992 20.5646 18.8098 20.5646C18.6747 20.5646 18.507 20.4951 18.3378 20.3687C18.3306 20.3633 18.3232 20.358 18.3158 20.3529L13.2547 16.8694C13.254 16.8689 13.2533 16.8684 13.2526 16.868L10.3912 14.8984L17.95 7.96486C18.2112 7.72528 18.2533 7.32877 18.0481 7.03973C17.843 6.7507 17.4548 6.65958 17.1424 6.82706L6.05442 12.7732L1.74533 11.1941C1.74219 11.1929 1.73905 11.1918 1.73587 11.1907L22.0332 3.5003C22.2042 3.43547 22.3236 3.42188 22.3936 3.42188C22.4284 3.42188 22.5123 3.42572 22.5413 3.46134C22.5784 3.50695 22.6252 3.66206 22.5649 3.95395Z"></path></g></symbol><symbol id="pen-icon" viewBox="0 0 24 24"><path d="M5.30775 20.5C4.80258 20.5 4.375 20.325 4.025 19.975C3.675 19.625 3.5 19.1974 3.5 18.6923V5.30777C3.5 4.80261 3.675 4.37502 4.025 4.02502C4.375 3.67502 4.80258 3.50002 5.30775 3.50002H12.1598C12.4098 3.50002 12.5973 3.57852 12.7223 3.73552C12.8473 3.89269 12.9098 4.06419 12.9098 4.25002C12.9098 4.43586 12.8447 4.60736 12.7145 4.76452C12.5843 4.92152 12.3942 5.00002 12.1442 5.00002H5.30775C5.23075 5.00002 5.16025 5.03211 5.09625 5.09627C5.03208 5.16027 5 5.23077 5 5.30777V18.6923C5 18.7693 5.03208 18.8398 5.09625 18.9038C5.16025 18.9679 5.23075 19 5.30775 19H18.6923C18.7692 19 18.8398 18.9679 18.9038 18.9038C18.9679 18.8398 19 18.7693 19 18.6923V11.7923C19 11.5423 19.0785 11.3548 19.2355 11.2298C19.3927 11.1048 19.5642 11.0423 19.75 11.0423C19.9358 11.0423 20.1073 11.1048 20.2645 11.2298C20.4215 11.3548 20.5 11.5423 20.5 11.7923V18.6923C20.5 19.1974 20.325 19.625 19.975 19.975C19.625 20.325 19.1974 20.5 18.6923 20.5H5.30775ZM9.5 13.596V11.8155C9.5 11.5744 9.54683 11.3426 9.6405 11.1203C9.734 10.8978 9.86283 10.7045 10.027 10.5405L18.5598 2.00777C18.7148 1.85261 18.8853 1.73944 19.0712 1.66827C19.2571 1.59711 19.4462 1.56152 19.6385 1.56152C19.8347 1.56152 20.0231 1.59711 20.2038 1.66827C20.3846 1.73944 20.5493 1.84936 20.698 1.99802L21.9538 3.25002C22.0986 3.40519 22.2098 3.57636 22.2875 3.76352C22.365 3.95069 22.4038 4.14044 22.4038 4.33277C22.4038 4.52511 22.3708 4.71161 22.3048 4.89227C22.2388 5.07311 22.1282 5.24102 21.973 5.39602L13.4115 13.9578C13.2473 14.1218 13.0541 14.2532 12.8318 14.352C12.6093 14.4507 12.3775 14.5 12.1365 14.5H10.404C10.1462 14.5 9.93108 14.4138 9.75875 14.2413C9.58625 14.0689 9.5 13.8539 9.5 13.596ZM11 13H12.2463L18.4788 6.76727L17.8558 6.14427L17.1885 5.50202L11 11.6905V13Z"></path></symbol></svg>