<svg width="55" height="54" viewBox="0 0 55 54" fill="none" xmlns="http://www.w3.org/2000/svg">
<path d="M14.9006 7.36615C14.9006 4.90688 16.9106 2.91151 19.3933 2.91151C21.8736 2.91151 23.8861 4.90452 23.8861 7.36615C23.8861 9.82543 21.876 11.8208 19.3933 11.8208C16.913 11.8208 14.9006 9.82779 14.9006 7.36615ZM11.4582 18.5973V32.7399C17.0084 29.7481 22.3417 26.1837 27.3285 22.1523V18.5972L36.3047 3.1814C36.8944 2.16596 36.5458 0.871249 35.5218 0.284274C34.4976 -0.300362 33.1895 0.045212 32.5998 1.06061L25.5578 13.1558H13.2302L6.18579 1.06061C5.59615 0.0451696 4.28794 -0.300399 3.26388 0.284274C2.23975 0.86891 1.89123 2.16602 2.4809 3.1814L11.4571 18.5972L11.4582 18.5973ZM5.3329 54H11.4582V44.0917C9.40043 44.9059 7.36416 45.6373 5.3329 46.2953V54ZM14.853 54H20.9783V39.8173C18.8991 40.8564 16.8628 41.808 14.853 42.6814V54ZM24.3756 54H30.5009V34.6408C28.4073 35.8645 26.371 37.003 24.3756 38.0634V54ZM53.8147 1.67818L41.7187 8.00057C41.1816 8.28224 41.141 9.0231 41.6423 9.35921L44.5141 11.2883C42.5495 14.079 40.0524 16.7086 37.3933 19.1467C26.83 28.5013 14.228 36.101 0.918867 41.0503C-0.747427 41.6444 0.0522913 44.0398 1.72574 43.5971C11.2507 40.7947 20.1194 36.4846 28.6342 31.5019C36.0655 27 43.4564 21.819 49.0378 15.0821C49.1667 14.9354 49.3004 14.7673 49.4341 14.5946L51.8476 16.2159C52.3417 16.5473 53.0197 16.2538 53.1032 15.6692L54.9915 2.49237C55.0846 1.84855 54.3947 1.37513 53.8122 1.6781L53.8147 1.67818ZM33.8957 54H40.021V28.342C37.9441 29.8758 35.8768 31.2676 33.8957 32.5316V54ZM43.4182 25.6959V54H49.5435V20.0249C47.6027 22.077 45.5306 23.9609 43.4182 25.6959Z" fill="white"/>
</svg>
