<svg width="54" height="54" viewBox="0 0 54 54" fill="none" xmlns="http://www.w3.org/2000/svg">
<path d="M5.34547 36.7761C4.82577 34.9943 4.45455 33.1382 4.45455 31.2079C4.45455 21.111 12.6955 12.8701 22.7925 12.8701C25.8364 12.8701 28.6576 13.6125 31.1819 14.8746L34.4486 11.608C31.0334 9.60343 27.0985 8.34131 22.7925 8.34131C10.2455 8.34131 0 18.5867 0 31.1337C0 32.6928 0.148485 34.1776 0.445456 35.6624C2.15304 35.8852 3.78637 36.1821 5.34547 36.7761Z" fill="white"/>
<path d="M39.0509 22.8184C40.313 25.3427 41.0554 28.1639 41.0554 31.2078C41.0554 41.3047 32.8887 49.5456 22.7175 49.5456C20.7872 49.5456 18.9311 49.2486 17.1493 48.6547C17.669 50.2138 18.0402 51.8471 18.1887 53.5547C19.6735 53.8517 21.1584 54.0001 22.7175 54.0001C35.2645 54.0001 45.51 43.7547 45.51 31.2078C45.51 26.976 44.3221 22.9669 42.3175 19.5518L39.0509 22.8184Z" fill="white"/>
<path d="M22.7923 21.4819C23.3862 21.4819 23.9059 21.5561 24.4256 21.6304L27.9893 18.0667C26.3559 17.3986 24.5741 17.0273 22.7181 17.0273C14.8483 17.0273 8.53772 23.4122 8.53772 31.2076C8.53772 39.0773 14.9226 45.3879 22.7181 45.3879C30.5135 45.3879 36.8984 39.003 36.8984 31.2076C36.8984 29.3516 36.5272 27.5697 35.859 25.9364L32.2953 29.5C32.4438 30.0197 32.4438 30.6137 32.4438 31.1334C32.4438 36.4788 28.0635 40.8591 22.7181 40.8591C17.3726 40.8591 12.9923 36.4788 12.9923 31.1334C13.0665 25.8622 17.4468 21.4819 22.7923 21.4819Z" fill="white"/>
<path d="M53.8256 7.15324C53.6028 6.5593 52.9347 6.11385 52.2665 6.11385H47.8119V1.65931C47.8119 0.991134 47.4407 0.397196 46.7725 0.100227C46.1786 -0.1225 45.4362 0.0259849 44.9907 0.54568L40.3877 5.1487C40.0907 5.44567 39.868 5.89112 39.868 6.33657V10.9396L24.7967 26.0108C24.1285 25.788 23.4604 25.6395 22.7179 25.6395C19.5997 25.6395 17.0755 28.1638 17.0755 31.282C17.0755 34.4001 19.5997 36.9244 22.7179 36.9244C25.8361 36.9244 28.3604 34.4001 28.3604 31.282C28.3604 30.5395 28.2119 29.8714 27.9892 29.2032L43.0604 14.132H47.6634C48.1089 14.132 48.5544 13.9835 48.8513 13.6123L53.4544 9.00929C53.9741 8.56384 54.1225 7.82142 53.8256 7.15324Z" fill="white"/>
</svg>
