<svg width="54" height="54" viewBox="0 0 54 54" fill="none" xmlns="http://www.w3.org/2000/svg">
<path fill-rule="evenodd" clip-rule="evenodd" d="M43.2982 13.7866V19.2908L39.972 19.9452L38.5097 23.4627L39.7263 25.2628C37.5365 25.6833 35.3395 25.6833 33.2464 24.4785C32.7834 24.2068 32.2825 23.9847 31.7652 23.8052C34.0803 22.213 35.5922 19.5483 35.5922 16.5294C35.5922 11.6536 31.6424 7.7036 26.7664 7.7036C21.8904 7.7036 17.9406 11.6534 17.9406 16.5294C17.9406 20.2997 20.31 23.5216 23.6433 24.7855C23.1684 25.0643 22.6865 25.3336 22.2117 25.6123L14.4255 24.3556L15.0231 23.4602L13.568 19.9427L10.2418 19.2884V13.7842L13.568 13.1298L15.0231 9.61233L13.1356 6.79169L17.0287 2.89859L19.8422 4.78844L23.3597 3.32615L24.0141 0H29.5183L30.1727 3.32615L33.6901 4.78844L36.5036 2.90095L40.3967 6.79405L38.5093 9.61469L39.9715 13.1322L43.2982 13.7866ZM32.8263 17.3088C33.2515 17.3088 33.5987 16.9639 33.5987 16.5363C33.5987 14.6488 32.8333 12.9385 31.6002 11.7054C30.367 10.4722 28.6567 9.70685 26.7692 9.70685C24.8817 9.70685 23.1714 10.4722 21.9383 11.7054C20.7051 12.9385 19.9397 14.6488 19.9397 16.5363C19.9397 16.9616 20.2846 17.3088 20.7122 17.3088C21.1374 17.3088 21.4846 16.9639 21.4846 16.5363C21.4846 15.074 22.0776 13.7535 23.0343 12.7968C23.991 11.8401 25.3116 11.2471 26.7739 11.2471C28.2362 11.2471 29.5567 11.84 30.5134 12.7968C31.4702 13.7535 32.0631 15.074 32.0631 16.5363C32.056 16.9568 32.4011 17.3088 32.8263 17.3088ZM29.0017 13.2054L27.0386 15.1685C26.9512 15.1496 26.859 15.1378 26.7669 15.1378C25.9945 15.1378 25.3779 15.7614 25.3779 16.5269C25.3779 17.2993 26.0015 17.9159 26.7669 17.9159C27.5394 17.9159 28.156 17.2923 28.156 16.5269C28.156 16.4347 28.1442 16.3426 28.1324 16.2552L30.0954 14.2921C30.3978 13.9897 30.3978 13.5031 30.0954 13.2007C29.7907 12.9101 29.3041 12.9101 29.0017 13.2054Z" fill="white"/>
<path fill-rule="evenodd" clip-rule="evenodd" d="M44.7743 24.4547C44.6396 23.9491 44.942 23.4247 45.4476 23.2877L49.2178 22.2813C49.7234 22.1466 50.2478 22.449 50.3848 22.9546L53.5007 34.5864C53.6354 35.092 53.333 35.6164 52.8274 35.7534L49.0572 36.7598C48.5516 36.8944 48.0272 36.5921 47.8902 36.0865L44.7743 24.4547ZM34.0538 48.9236C33.0049 47.8677 31.949 46.8188 30.9001 45.7652C30.5978 45.4628 30.5978 44.9762 30.9001 44.6738C31.2025 44.3714 31.6892 44.3714 31.9915 44.6738L36.4232 49.1055C37.7934 50.4756 39.8533 48.4086 38.4903 47.0384C37.1461 45.6942 35.7996 44.3548 34.4554 43.0083C34.153 42.7059 34.153 42.2193 34.4554 41.9169C34.7578 41.6145 35.2444 41.6145 35.5468 41.9169C36.5957 42.9728 37.6517 44.0217 38.7005 45.0753C40.0706 46.4384 42.1306 44.3785 40.7675 43.0083L31.2451 33.4858C29.6292 33.4622 28.3394 33.226 27.2575 32.9C26.2889 32.6047 25.5117 32.2338 24.8266 31.8582L19.6792 34.8252C15.8404 37.0411 12.4221 31.2959 16.3223 28.9997C21.9753 25.7421 13.83 30.4384 20.0807 26.8264L10.1398 25.2224L7.20337 36.2047C9.60352 36.9087 11.9729 38.1371 13.9669 39.649C15.1528 38.7111 16.8868 38.8104 17.9546 39.8781C18.5593 40.4947 18.8735 41.2979 18.831 42.1672C19.6814 42.1176 20.5106 42.4389 21.1153 43.0366C21.7201 43.6413 22.0343 44.4681 21.9847 45.3209C22.8351 45.2784 23.6642 45.5926 24.2738 46.1973C24.8785 46.8021 25.188 47.6289 25.1431 48.4817C25.9817 48.4391 26.8275 48.7604 27.4275 49.351C28.0133 49.9368 28.3039 50.7093 28.3039 51.4747C28.3039 51.9991 28.1692 52.5165 27.9023 52.9795C28.4267 53.1401 28.9889 53.0031 29.3716 52.6157C29.9339 52.0535 29.9457 51.1109 29.3716 50.5487L27.5267 48.6966C27.2243 48.3942 27.2243 47.9076 27.5267 47.6052C27.829 47.3028 28.3157 47.3028 28.6181 47.6052C29.7402 48.7273 30.8646 49.8517 31.9938 50.9809C33.3568 52.3534 35.424 50.2867 34.0538 48.9236ZM14.8008 40.9741C15.3678 40.4072 16.2939 40.4072 16.8679 40.9741C17.4349 41.5411 17.4349 42.4671 16.8679 43.0412C16.2938 43.6152 15.7269 44.1822 15.1576 44.7515C14.5906 45.3184 13.6646 45.3184 13.0905 44.7515C12.5236 44.1845 12.5236 43.2585 13.0905 42.6844C13.6599 42.1104 14.2339 41.5411 14.8008 40.9741ZM17.9593 44.1278C18.5263 43.5609 19.4594 43.5609 20.0263 44.1278C20.5933 44.6948 20.5933 45.6279 20.0263 46.1949C19.1263 47.0949 18.2357 47.9784 17.3427 48.8785C16.7758 49.4454 15.8427 49.4454 15.2757 48.8785C14.7087 48.3115 14.7087 47.3854 15.2757 46.8114C16.171 45.9114 17.0592 45.0279 17.9593 44.1278ZM21.113 47.2863C21.6799 46.7193 22.606 46.7193 23.18 47.2863C23.747 47.8532 23.747 48.7793 23.18 49.3533C22.3154 50.2179 21.465 51.0683 20.6004 51.94C20.0334 52.507 19.1003 52.507 18.5333 51.94C17.9664 51.3731 17.9664 50.4399 18.5333 49.873C19.3979 49.0036 20.2484 48.1461 21.113 47.2863ZM38.6273 38.6782L32.1237 32.1747C31.9749 32.0329 31.7906 31.9526 31.5804 31.9526C29.9693 31.9526 28.7243 31.7423 27.718 31.4352C26.7188 31.1258 25.9226 30.7124 25.2258 30.3131C24.9234 30.1336 24.5407 30.2635 24.4533 30.3131L18.9302 33.5046C18.4979 33.7503 17.9994 33.807 17.5482 33.6841C16.5679 33.4196 15.9985 32.4321 16.2584 31.4565C16.3931 30.9438 16.6954 30.5918 17.1467 30.3202L19.4972 28.9618C19.6956 28.8508 25.7902 25.3333 25.7902 25.3262C26.5249 24.901 27.6848 24.7215 28.9368 24.8089C30.1581 24.8892 31.4362 25.2223 32.478 25.8271C36.1301 27.9366 39.8886 26.9751 43.5619 25.8696L46.203 35.7368L38.6273 38.6782ZM24.274 50.4401C24.841 49.8731 25.7741 49.8731 26.3411 50.4401C26.908 51.007 26.908 51.9401 26.3411 52.5071L25.2733 53.5749C24.7064 54.1418 23.7732 54.1418 23.2063 53.5749C22.6393 53.0079 22.6393 52.0748 23.2063 51.5078L24.274 50.4401ZM8.75844 24.4495L5.64256 36.0814C5.50791 36.5869 4.98108 36.8893 4.47557 36.7546L0.705289 35.7483C0.199751 35.6136 -0.102602 35.0868 0.0320161 34.5813L3.14789 22.9494C3.28255 22.4439 3.80937 22.1415 4.31489 22.2762L8.08517 23.2825C8.59306 23.4243 8.89542 23.9487 8.75844 24.4495Z" fill="white"/>
</svg>
