<svg width="80" height="54" viewBox="0 0 80 54" fill="none" xmlns="http://www.w3.org/2000/svg">
<path d="M56.8921 0C48.5243 0 40.0985 3.75494 33.8346 10.1236C33.6168 10.3431 33.4447 10.6033 33.3284 10.8892C33.212 11.175 33.1537 11.4809 33.1566 11.7893C33.1596 12.0976 33.2239 12.4024 33.3457 12.6859C33.4676 12.9695 33.6446 13.2264 33.8666 13.4417C34.089 13.6568 34.3519 13.826 34.6403 13.9397C34.9287 14.0534 35.2369 14.1093 35.5471 14.1042C35.8573 14.0991 36.1634 14.0331 36.4478 13.91C36.7323 13.7869 36.9895 13.6091 37.2046 13.3869C42.6302 7.87061 49.9556 4.68016 56.892 4.68016C63.15 4.68016 68.1433 7.14852 71.3656 11.056C74.5878 14.9634 76.0733 20.3648 74.9104 26.5681C72.5847 38.9747 60.162 49.3198 47.646 49.3198C40.7096 49.3198 34.9885 46.2368 31.816 41.0245C31.4928 40.4936 30.9708 40.1121 30.3647 39.9638C29.7585 39.8155 29.118 39.9126 28.5839 40.2338C28.319 40.3925 28.0883 40.6015 27.9048 40.8489C27.7212 41.0963 27.5885 41.3772 27.5143 41.6755C27.44 41.9739 27.4255 42.2839 27.4718 42.5878C27.518 42.8917 27.6241 43.1836 27.7838 43.4468C31.8451 50.1194 39.2782 54 47.6459 54C62.6909 54 76.7567 42.2563 79.5357 27.4319C80.9252 20.0197 79.1335 13.1004 74.9978 8.08516C70.8619 3.06991 64.4146 0 56.8921 0ZM54.7174 9.23688C54.1553 9.22256 53.6066 9.40871 53.1706 9.76165C52.7347 10.1146 52.4401 10.611 52.3404 11.1611L49.053 28.6751C48.9629 29.1712 49.0364 29.6831 49.2626 30.1344C49.4887 30.5857 49.8555 30.9523 50.3082 31.1797L59.168 35.6907C59.444 35.8328 59.7455 35.9191 60.0552 35.9447C60.3649 35.9703 60.6766 35.9347 60.9724 35.8399C61.2682 35.7452 61.5421 35.5932 61.7785 35.3926C62.0149 35.1921 62.209 34.947 62.3496 34.6715C62.6324 34.1192 62.6832 33.478 62.491 32.8885C62.2988 32.299 61.8792 31.8094 61.3243 31.527L54.0093 27.8112L56.9795 12.0066C57.0359 11.7037 57.0316 11.3928 56.9669 11.0916C56.9021 10.7904 56.7782 10.5048 56.6022 10.2513C56.4263 9.99785 56.2017 9.78138 55.9413 9.61436C55.681 9.44733 55.3901 9.33304 55.0852 9.27803C54.9639 9.2546 54.8409 9.24112 54.7174 9.23688ZM5.92647 15.1694C5.61733 15.1681 5.31099 15.2275 5.02492 15.344C4.73885 15.4605 4.47867 15.6318 4.25922 15.8483C4.03978 16.0647 3.86537 16.322 3.74595 16.6055C3.62653 16.8889 3.56445 17.193 3.56324 17.5003C3.56203 17.8091 3.62232 18.1151 3.74065 18.4007C3.85899 18.6863 4.03301 18.9457 4.2527 19.1641C4.47239 19.3825 4.73339 19.5555 5.02066 19.6731C5.30793 19.7908 5.61578 19.8507 5.92647 19.8495H29.2966C29.6073 19.8507 29.9152 19.7908 30.2024 19.6731C30.4897 19.5555 30.7507 19.3825 30.9704 19.1641C31.1901 18.9457 31.3641 18.6863 31.4825 18.4007C31.6008 18.1151 31.6611 17.8091 31.6599 17.5003C31.6587 17.193 31.5966 16.8889 31.4772 16.6055C31.3577 16.322 31.1833 16.0647 30.9639 15.8483C30.7444 15.6318 30.4843 15.4605 30.1982 15.344C29.9121 15.2275 29.6058 15.1681 29.2966 15.1694H5.92647ZM12.561 24.6668C12.2514 24.6656 11.9447 24.725 11.6584 24.8418C11.372 24.9586 11.1116 25.1304 10.8921 25.3473C10.6726 25.5642 10.4983 25.8221 10.3791 26.1061C10.26 26.39 10.1983 26.6946 10.1977 27.0023C10.1989 27.3096 10.261 27.6136 10.3804 27.8971C10.4999 28.1805 10.6743 28.4378 10.8937 28.6543C11.1132 28.8707 11.3734 29.0421 11.6594 29.1586C11.9455 29.2751 12.2518 29.3344 12.561 29.3332H35.9541C36.5753 29.3308 37.1703 29.0844 37.6095 28.6478C38.0487 28.2112 38.2965 27.6197 38.299 27.0023C38.2977 26.384 38.0505 25.7914 37.6111 25.3538C37.1718 24.9162 36.5761 24.6692 35.9541 24.6668H12.561ZM2.36324 34.1505C2.05256 34.1493 1.74471 34.2092 1.45744 34.3268C1.17018 34.4445 0.909174 34.6175 0.689486 34.8358C0.469798 35.0542 0.29577 35.3137 0.177436 35.5993C0.0591026 35.8848 -0.00119566 36.1908 1.79618e-05 36.4997C0.00122079 36.807 0.0633022 37.111 0.182717 37.3945C0.302132 37.678 0.476542 37.9352 0.695988 38.1517C0.915435 38.3681 1.17562 38.5395 1.46169 38.656C1.74776 38.7725 2.05411 38.8318 2.36324 38.8306H25.7518C26.3729 38.8282 26.968 38.5819 27.4072 38.1453C27.8464 37.7086 28.0942 37.1171 28.0966 36.4997C28.0979 36.1924 28.0382 35.8878 27.921 35.6035C27.8038 35.3191 27.6314 35.0605 27.4137 34.8423C27.1959 34.6242 26.9371 34.4508 26.652 34.3321C26.3668 34.2134 26.0609 34.1517 25.7518 34.1505H2.36324Z" fill="white"/>
</svg>
