<svg width="147" height="59" viewBox="0 0 147 59" fill="none" xmlns="http://www.w3.org/2000/svg">
<path d="M71.4311 3.25194V21H68.2673V3.25194H71.4311ZM54.0431 3.25194V21H50.8793V3.25194H54.0431ZM69.0904 18.6336V21H53.8116V18.6336H69.0904ZM62.7114 3.25194V21H59.5991V3.25194H62.7114ZM86.609 8.37058C86.3175 9.22798 86.0517 9.98248 85.8116 10.6341C85.5715 11.2857 85.34 11.8345 85.1171 12.2803C84.8942 12.709 84.637 13.0691 84.3455 13.3606C84.0711 13.6521 83.7367 13.8836 83.3423 14.0551C82.9651 14.2094 82.5021 14.3209 81.9533 14.3895V14.4924C82.5192 14.5438 83.0079 14.6467 83.4195 14.801C83.831 14.9554 84.1826 15.1869 84.4741 15.4955C84.7827 15.787 85.0571 16.1729 85.2972 16.653C85.5544 17.116 85.8116 17.7076 86.0688 18.4278C86.3432 19.148 86.6519 20.0054 86.9948 21H83.7281C83.4366 20.1083 83.1708 19.3452 82.9308 18.7108C82.6907 18.0763 82.4678 17.5533 82.262 17.1417C82.0562 16.7302 81.8247 16.4129 81.5675 16.19C81.3274 15.9499 81.0359 15.787 80.693 15.7013C80.3672 15.5984 79.9813 15.547 79.5355 15.547L79.5098 13.3606C80.0585 13.3606 80.5215 13.2749 80.8987 13.1034C81.276 12.9148 81.5932 12.6233 81.8504 12.2289C82.1248 11.8345 82.382 11.3286 82.6221 10.7113C82.8622 10.0768 83.128 9.29657 83.4195 8.37058H86.609ZM78.3266 8.37058V11.843C78.3266 12.2546 78.2923 12.6833 78.2237 13.1291C78.1551 13.575 78.0436 13.9951 77.8893 14.3895C78.0265 14.7667 78.1294 15.1611 78.1979 15.5727C78.2837 15.9842 78.3266 16.3615 78.3266 16.7045V21H75.2142V8.37058H78.3266ZM80.4357 13.3606V15.547H77.5035V13.3606H80.4357ZM101.495 8.37058L96.7623 21.3858C96.5565 22.0032 96.2993 22.569 95.9906 23.0835C95.6991 23.6151 95.3561 24.0866 94.9617 24.4982C94.5673 24.9269 94.1129 25.2784 93.5985 25.5528C92.9126 25.9643 92.1581 26.1958 91.335 26.2473C90.5119 26.3158 89.6545 26.2815 88.7628 26.1444L89.02 24.0609C89.6716 24.078 90.2718 24.0523 90.8205 23.9837C91.3693 23.9151 91.8494 23.7522 92.2609 23.495C92.6039 23.2721 92.9126 22.9549 93.1869 22.5433C93.4784 22.1318 93.7185 21.6859 93.9071 21.2058L94.5759 19.6367C94.7302 19.2595 94.876 18.8308 95.0132 18.3507C95.1504 17.8534 95.279 17.4247 95.399 17.0646L98.177 8.37058H101.495ZM91.335 8.37058L94.1129 17.0646C94.1987 17.3561 94.2758 17.6562 94.3444 17.9648C94.413 18.2563 94.4816 18.5479 94.5502 18.8394H95.1932L94.1644 21H93.367C93.1269 21 92.9126 20.9314 92.7239 20.7942C92.5353 20.657 92.3981 20.4684 92.3124 20.2283L87.9911 8.37058H91.335ZM109.9 8.37058V21H106.788V8.37058H109.9ZM114.247 8.37058V10.8142H102.415V8.37058H114.247ZM122.17 8.06192C123.697 8.06192 124.914 8.27627 125.823 8.70496C126.749 9.13366 127.409 9.83673 127.803 10.8142C128.215 11.7916 128.421 13.0862 128.421 14.6982C128.421 16.3101 128.215 17.6047 127.803 18.5821C127.409 19.5424 126.749 20.2455 125.823 20.6913C124.914 21.12 123.697 21.3344 122.17 21.3344C120.644 21.3344 119.418 21.12 118.492 20.6913C117.566 20.2455 116.897 19.5424 116.486 18.5821C116.074 17.6047 115.869 16.3101 115.869 14.6982C115.869 13.0862 116.074 11.7916 116.486 10.8142C116.897 9.83673 117.566 9.13366 118.492 8.70496C119.418 8.27627 120.644 8.06192 122.17 8.06192ZM122.17 10.4283C121.399 10.4283 120.79 10.5569 120.344 10.8142C119.915 11.0542 119.607 11.4829 119.418 12.1002C119.23 12.7176 119.135 13.5835 119.135 14.6982C119.135 15.8128 119.23 16.6787 119.418 17.2961C119.607 17.9134 119.915 18.3421 120.344 18.5821C120.79 18.8222 121.399 18.9423 122.17 18.9423C122.925 18.9423 123.517 18.8222 123.945 18.5821C124.391 18.3421 124.7 17.9134 124.871 17.2961C125.06 16.6787 125.154 15.8128 125.154 14.6982C125.154 13.5835 125.06 12.7176 124.871 12.1002C124.7 11.4829 124.391 11.0542 123.945 10.8142C123.517 10.5569 122.925 10.4283 122.17 10.4283ZM137.115 8.24197C138.47 8.24197 139.541 8.33629 140.33 8.52491C141.119 8.71354 141.685 9.0565 142.028 9.55378C142.388 10.0339 142.568 10.7198 142.568 11.6115C142.568 12.5032 142.354 13.1806 141.925 13.6436C141.513 14.1065 140.81 14.3809 139.816 14.4667V14.5438C141.016 14.6296 141.848 14.9554 142.311 15.5212C142.791 16.0871 143.031 16.8759 143.031 17.8877C143.031 18.7451 142.851 19.4138 142.491 19.894C142.148 20.3741 141.591 20.7171 140.819 20.9228C140.064 21.1115 139.07 21.2058 137.835 21.2058C136.875 21.2058 136.035 21.1972 135.314 21.1801C134.594 21.1801 133.925 21.1629 133.308 21.1286C132.708 21.1115 132.082 21.0857 131.43 21.0514L131.765 18.9423C132.125 18.9594 132.802 18.9765 133.797 18.9937C134.809 18.9937 135.992 18.9937 137.346 18.9937C137.981 18.9937 138.487 18.9508 138.864 18.8651C139.258 18.7622 139.533 18.5821 139.687 18.3249C139.859 18.0677 139.944 17.7076 139.944 17.2446C139.944 16.5415 139.747 16.07 139.353 15.8299C138.958 15.5727 138.255 15.4441 137.244 15.4441H131.739V13.5664H137.244C137.844 13.5664 138.315 13.5235 138.658 13.4378C139.018 13.352 139.276 13.1891 139.43 12.9491C139.584 12.709 139.661 12.3746 139.661 11.9459C139.661 11.5515 139.576 11.2429 139.404 11.0199C139.233 10.797 138.95 10.6427 138.555 10.5569C138.178 10.4712 137.655 10.4283 136.986 10.4283C136.18 10.4112 135.46 10.4026 134.826 10.4026C134.191 10.4026 133.625 10.4026 133.128 10.4026C132.631 10.4026 132.176 10.4283 131.765 10.4798L131.43 8.3963C132.014 8.34486 132.571 8.31056 133.102 8.29342C133.651 8.27627 134.243 8.26769 134.877 8.26769C135.529 8.25055 136.275 8.24197 137.115 8.24197ZM134.363 8.3963V21.0514H131.43V8.3963H134.363ZM68.4474 24.2519C69.2533 24.2519 69.6649 24.6635 69.682 25.4866L70.3765 42H67.3156L66.724 26.7984H66.2096L62.8914 38.7076C62.7543 39.4107 62.317 39.7622 61.5796 39.7622H59.3161C58.5788 39.7622 58.1329 39.4107 57.9786 38.7076L54.6347 26.7984H54.1717L53.6059 42H50.545L51.2137 25.4866C51.248 24.6635 51.6596 24.2519 52.4484 24.2519H55.6636C56.3495 24.2519 56.7782 24.6035 56.9497 25.3065L59.6762 35.0294C59.7963 35.4409 59.8906 35.8525 59.9592 36.264C60.0449 36.6756 60.1392 37.0871 60.2421 37.4987H60.6279C60.7308 37.0871 60.8251 36.6756 60.9109 36.264C60.9966 35.8525 61.0909 35.4324 61.1938 35.0037L63.9203 25.3065C64.0746 24.6035 64.5119 24.2519 65.2321 24.2519H68.4474ZM85.6904 29.3706V42L82.8868 42.0257V34.6436C82.8868 34.3349 82.8953 34.0348 82.9125 33.7433C82.9468 33.4346 82.9725 33.1088 82.9896 32.7659H82.9382C82.8182 33.0402 82.6724 33.3403 82.5009 33.6661C82.3294 33.9748 82.158 34.2406 81.9865 34.4635L76.5077 42H73.8327V29.3706H76.6363V36.8299C76.6363 37.1214 76.6278 37.4129 76.6106 37.7045C76.5935 37.9788 76.5678 38.2875 76.5335 38.6304H76.5849C76.7221 38.3389 76.8678 38.056 77.0222 37.7816C77.1937 37.5073 77.3651 37.2586 77.5366 37.0357L83.0411 29.3706H85.6904ZM100.985 29.3706L97.2295 35.5181L101.268 42H98.0269L94.1429 35.5181L97.7696 29.3706H100.985ZM91.4421 29.3706L95.0431 35.5181L91.1334 42H87.8925L91.9565 35.5181L88.2268 29.3706H91.4421ZM96.3292 34.4121V36.4955H92.8825V34.4121H96.3292ZM109.852 29.0619C110.864 29.0619 111.713 29.1991 112.399 29.4735C113.084 29.7307 113.607 30.1765 113.968 30.811C114.328 31.4455 114.508 32.32 114.508 33.4346V42H112.038L111.601 39.2735L111.395 38.9134V33.4089C111.378 32.7401 111.215 32.26 110.907 31.9685C110.598 31.6598 110.015 31.5055 109.158 31.5055C108.489 31.5055 107.657 31.5312 106.663 31.5827C105.685 31.6341 104.699 31.7027 103.705 31.7884L103.422 29.6535C104.022 29.5335 104.699 29.4306 105.454 29.3449C106.225 29.2591 106.988 29.1905 107.743 29.1391C108.515 29.0876 109.218 29.0619 109.852 29.0619ZM113.17 34.232L113.144 36.1611H107.383C106.851 36.1783 106.474 36.3155 106.251 36.5727C106.028 36.8299 105.917 37.1814 105.917 37.6273V38.3218C105.917 38.8362 106.054 39.2306 106.328 39.505C106.62 39.7622 107.048 39.8908 107.614 39.8908C108.077 39.8908 108.592 39.7965 109.158 39.6079C109.723 39.4192 110.281 39.1449 110.83 38.7848C111.395 38.4247 111.901 37.996 112.347 37.4987V39.1192C112.193 39.3764 111.953 39.685 111.627 40.0451C111.301 40.3881 110.898 40.7311 110.418 41.074C109.955 41.417 109.415 41.6999 108.797 41.9228C108.18 42.1458 107.503 42.2572 106.765 42.2572C106.011 42.2572 105.334 42.1286 104.733 41.8714C104.133 41.597 103.662 41.2026 103.319 40.6882C102.993 40.1566 102.83 39.505 102.83 38.7333V37.3958C102.83 36.4012 103.156 35.6296 103.807 35.0808C104.459 34.5149 105.368 34.232 106.534 34.232H113.17ZM129.85 29.3706V42L127.046 42.0257V34.6436C127.046 34.3349 127.054 34.0348 127.072 33.7433C127.106 33.4346 127.132 33.1088 127.149 32.7659H127.097C126.977 33.0402 126.832 33.3403 126.66 33.6661C126.489 33.9748 126.317 34.2406 126.146 34.4635L120.667 42H117.992V29.3706H120.796V36.8299C120.796 37.1214 120.787 37.4129 120.77 37.7045C120.753 37.9788 120.727 38.2875 120.693 38.6304H120.744C120.881 38.3389 121.027 38.056 121.181 37.7816C121.353 37.5073 121.524 37.2586 121.696 37.0357L127.2 29.3706H129.85ZM144.398 29.3706V31.6084H139.485C139.022 31.6084 138.679 31.7198 138.456 31.9428C138.251 32.1485 138.113 32.5001 138.045 32.9974C137.959 33.7176 137.865 34.4549 137.762 35.2094C137.659 35.9468 137.548 36.6584 137.427 37.3443C137.307 38.0131 137.162 38.6133 136.99 39.1449C136.802 39.8994 136.484 40.5081 136.039 40.9711C135.593 41.4341 135.052 41.7599 134.418 41.9486C133.801 42.12 133.106 42.1801 132.335 42.1286L132 39.8136C132.429 39.7108 132.789 39.5993 133.08 39.4793C133.372 39.3592 133.604 39.2049 133.775 39.0163C133.946 38.8276 134.092 38.579 134.212 38.2703C134.332 37.9274 134.435 37.5244 134.521 37.0614C134.624 36.5984 134.71 36.1097 134.778 35.5953C134.864 35.0637 134.932 34.5321 134.984 34.0005C135.035 33.4518 135.087 32.9288 135.138 32.4315C135.258 31.4369 135.576 30.6824 136.09 30.168C136.622 29.6364 137.419 29.3706 138.482 29.3706H144.398ZM144.732 29.3706V42H141.62V29.3706H144.732Z" fill="white"/>
<g clip-path="url(#clip0_7_698)">
<path d="M39.0979 27.8789V41.1551H26.0723V27.8789H28.8849V39.2736H31.31V27.8789H33.8602V39.2736H36.2853V27.8789H39.0979Z" fill="white"/>
<path d="M38.1843 12.8496L39.0979 26.1258H36.2398L35.9352 20.0109C35.9118 19.4989 35.8962 19.0253 35.8884 18.5901C35.8884 18.1486 35.8923 17.7326 35.9001 17.3422C35.9079 16.9454 35.9196 16.5646 35.9352 16.1998C35.9587 15.8351 35.986 15.4767 36.0172 15.1247L33.8736 23.8219H31.2732L28.9773 15.1247C29.0085 15.4639 29.0358 15.8191 29.0593 16.1902C29.0827 16.5614 29.0983 16.9486 29.1061 17.3518C29.1217 17.755 29.1295 18.1806 29.1295 18.6285C29.1374 19.0765 29.1295 19.5437 29.1061 20.0301L28.8836 26.1258H26.0723L26.9859 12.8496H30.5469L32.632 21.614L34.6233 12.8496H38.1843Z" fill="white"/>
<mask id="mask0_7_698" style="mask-type:alpha" maskUnits="userSpaceOnUse" x="-4" y="-3" width="48" height="49">
<path d="M22.8155 9.34278V45.1634H-1.85812L-3.48633 -2.55566H42.9802L43.857 9.34278H22.8155Z" fill="#D9D9D9"/>
</mask>
<g mask="url(#mask0_7_698)">
<rect x="2.1492" y="4.20779" width="35.5701" height="35.5701" stroke="white" stroke-width="2.75543"/>
<path d="M18.2457 16.2928C18.2457 17.1072 18.0855 17.8749 17.8051 18.5491C17.1687 20.0666 15.9138 21.1013 14.4697 21.1013C13.0233 21.1013 11.7684 20.0666 11.132 18.5491C10.8516 17.8749 10.6914 17.1072 10.6914 16.2928C10.6914 13.6382 12.3825 12.3477 14.4697 12.3477C16.5546 12.3477 18.2457 13.6382 18.2457 16.2928Z" fill="white"/>
<path d="M19.8145 23.7435V24.2441H9.125V23.7435C9.125 23.3229 9.32972 22.9291 9.67461 22.6887L10.5179 22.1013C10.8072 21.9033 11.1832 21.9144 11.4636 22.1191C12.3403 22.751 13.3683 23.1137 14.4698 23.1137C15.569 23.1137 16.597 22.751 17.4737 22.1191C17.7563 21.9144 18.1323 21.9033 18.4193 22.1013L19.2649 22.6887C19.6098 22.9291 19.8145 23.3229 19.8145 23.7435Z" fill="white"/>
<path d="M20.2675 24.9121H8.67014C8.2585 24.9121 7.93808 25.2659 7.97591 25.6753L8.51438 31.4673C8.54776 31.8256 8.84815 32.0993 9.20639 32.0993H19.7312C20.0895 32.0993 20.3899 31.8256 20.4232 31.4673L20.9617 25.6753C20.9995 25.2659 20.6791 24.9121 20.2675 24.9121ZM15.3299 28.964C15.1653 29.2711 14.8426 29.4803 14.4688 29.4803C14.095 29.4803 13.7723 29.2711 13.6099 28.964C13.5365 28.8283 13.4942 28.6703 13.4942 28.5057C13.4942 27.9694 13.9303 27.5333 14.4688 27.5333C15.0073 27.5333 15.4434 27.9694 15.4434 28.5057C15.4434 28.6703 15.4011 28.8283 15.3299 28.964Z" fill="white"/>
<path d="M20.2675 24.9121H8.67014C8.2585 24.9121 7.93808 25.2659 7.97591 25.6753L8.51438 31.4673C8.54776 31.8256 8.84815 32.0993 9.20639 32.0993H19.7312C20.0895 32.0993 20.3899 31.8256 20.4232 31.4673L20.9617 25.6753C20.9995 25.2659 20.6791 24.9121 20.2675 24.9121ZM15.3299 28.964C15.1653 29.2711 14.8426 29.4803 14.4688 29.4803C14.095 29.4803 13.7723 29.2711 13.6099 28.964C13.5365 28.8283 13.4942 28.6703 13.4942 28.5057C13.4942 27.9694 13.9303 27.5333 14.4688 27.5333C15.0073 27.5333 15.4434 27.9694 15.4434 28.5057C15.4434 28.6703 15.4011 28.8283 15.3299 28.964Z" fill="white"/>
</g>
</g>
<path d="M1.65451 57.1572H0.801563V50.3028H3.55565C4.93269 50.3028 5.70343 51.2483 5.70343 52.3684C5.70343 53.4885 4.91214 54.434 3.55565 54.434H1.65451V57.1572ZM3.45289 53.6735C4.26472 53.6735 4.81965 53.1391 4.81965 52.3684C4.81965 51.5977 4.26472 51.0633 3.45289 51.0633H1.65451V53.6735H3.45289ZM12.9356 57.1572H11.9594L11.3531 55.6363H7.94128L7.33497 57.1572H6.35871L9.1128 50.3028H10.1713L12.9356 57.1572ZM11.0962 54.8759L9.64717 51.1866L8.18792 54.8759H11.0962ZM16.7948 57.2805C15.5924 57.2805 14.647 56.7667 14.2154 56.1501L14.7189 55.6055C15.13 56.1399 15.9315 56.5201 16.7742 56.5201C17.8532 56.5201 18.5007 56.0268 18.5007 55.2355C18.5007 54.3826 17.771 54.0229 16.7228 54.0229H15.3252V53.2625H16.7228C17.6374 53.2625 18.3876 52.9233 18.3876 52.132C18.3876 51.3716 17.6477 50.9605 16.7434 50.9605C15.9624 50.9605 15.315 51.2483 14.8011 51.7929L14.3284 51.2585C14.8422 50.6625 15.7157 50.2001 16.805 50.2001C18.1513 50.2001 19.2611 50.868 19.2611 52.0293C19.2611 53.0158 18.4184 53.5091 17.7813 53.6221C18.4082 53.6735 19.3639 54.2079 19.3639 55.3075C19.3639 56.4482 18.3362 57.2805 16.7948 57.2805ZM22.6008 57.1572H21.7478V50.3028H24.5019C25.879 50.3028 26.6497 51.2483 26.6497 52.3684C26.6497 53.4885 25.8584 54.434 24.5019 54.434H22.6008V57.1572ZM24.3992 53.6735C25.211 53.6735 25.7659 53.1391 25.7659 52.3684C25.7659 51.5977 25.211 51.0633 24.3992 51.0633H22.6008V53.6735H24.3992ZM33.8819 57.1572H32.9057L32.2993 55.6363H28.8876L28.2813 57.1572H27.305L30.0591 50.3028H31.1176L33.8819 57.1572ZM32.0424 54.8759L30.5935 51.1866L29.1342 54.8759H32.0424ZM35.8057 50.3028H40.2554V51.0633H36.6586V53.0261H38.5598C39.9163 53.0261 40.7076 53.9715 40.7076 55.0917C40.7076 56.2118 39.9368 57.1572 38.5598 57.1572H35.8057V50.3028ZM38.457 53.7866H36.6586V56.3968H38.457C39.2689 56.3968 39.8238 55.8624 39.8238 55.0917C39.8238 54.3209 39.2689 53.7866 38.457 53.7866ZM45.9888 57.2805C43.954 57.2805 42.5873 55.7596 42.5873 53.7352C42.5873 51.7107 43.954 50.1898 45.9888 50.1898C48.0132 50.1898 49.3903 51.7107 49.3903 53.7352C49.3903 55.7596 48.0132 57.2805 45.9888 57.2805ZM45.9888 56.5201C47.52 56.5201 48.5065 55.328 48.5065 53.7352C48.5065 52.132 47.52 50.9503 45.9888 50.9503C44.4473 50.9503 43.471 52.132 43.471 53.7352C43.471 55.328 44.4473 56.5201 45.9888 56.5201ZM54.0178 57.1572H53.1649V51.0633H50.9965V50.3028H56.1964V51.0633H54.0178V57.1572ZM63.5576 57.1572H62.4991L59.8991 54.0743L59.2106 54.8553V57.1572H58.3577V50.3028H59.2106V53.8482L62.2422 50.3028H63.3109L60.4541 53.5605L63.5576 57.1572ZM71.4251 57.1572H70.4488L69.8425 55.6363H66.4307L65.8244 57.1572H64.8481L67.6022 50.3028H68.6607L71.4251 57.1572ZM69.5856 54.8759L68.1366 51.1866L66.6773 54.8759H69.5856ZM77.8788 57.1572H77.0259V50.3028H77.8788V57.1572ZM83.0608 57.1572H82.2079V51.0633H80.0395V50.3028H85.2394V51.0633H83.0608V57.1572ZM88.7616 55.0094H86.2952V54.3312H88.7616V55.0094ZM91.75 57.1572H90.8971V50.3028H93.6512C95.0282 50.3028 95.7989 51.2483 95.7989 52.3684C95.7989 53.4885 95.0077 54.434 93.6512 54.434H91.75V57.1572ZM93.5484 53.6735C94.3602 53.6735 94.9152 53.1391 94.9152 52.3684C94.9152 51.5977 94.3602 51.0633 93.5484 51.0633H91.75V53.6735H93.5484ZM102.447 57.1572H97.9561V50.3028H102.447V51.0633H98.8091V53.2727H102.375V54.0332H98.8091V56.3968H102.447V57.1572ZM112.223 50.3028H113.076V57.1572H104.835V50.3028H105.687V56.3968H108.534V50.3028H109.387V56.3968H112.223V50.3028ZM120.198 57.1572H115.707V50.3028H120.198V51.0633H116.56V53.2727H120.126V54.0332H116.56V56.3968H120.198V57.1572ZM128.299 57.1572H127.446V54.0126H123.438V57.1572H122.585V50.3028H123.438V53.2522H127.446V50.3028H128.299V57.1572ZM131.751 57.1572H130.929V50.3028H131.782V55.6569L135.728 50.3028H136.602V57.1572H135.749V51.6902L131.751 57.1572ZM140.055 57.1572H139.233V50.3028H140.085V55.6569L144.032 50.3028H144.905V57.1572H144.052V51.6902L140.055 57.1572ZM143.867 49.008C143.456 49.5629 142.809 49.9123 142.069 49.9123C141.339 49.9123 140.681 49.5629 140.26 49.008L140.64 48.6792C140.969 49.1313 141.462 49.4191 142.069 49.4191C142.665 49.4191 143.168 49.1416 143.487 48.6792L143.867 49.008Z" fill="white"/>
<defs>
<clipPath id="clip0_7_698">
<rect width="38.3255" height="38.3255" fill="white" transform="translate(0.771484 2.83008)"/>
</clipPath>
</defs>
</svg>
