<svg width="195" height="35" viewBox="0 0 195 35" fill="none" xmlns="http://www.w3.org/2000/svg">
<g clip-path="url(#clip0_8_864)">
<path d="M4.755 22.1701V14.1791H6.676C8.396 14.1791 9.812 14.3791 10.822 14.9891C11.832 15.5941 12.442 16.6091 12.442 18.2241C12.442 20.9541 10.822 22.1701 6.981 22.1701H4.755ZM0.1 26.0101H6.876C14.463 26.0101 17.197 22.6701 17.197 18.0191C17.197 14.8831 15.882 12.7591 13.557 11.5431C11.737 10.5331 9.411 10.2281 6.576 10.2281H4.756V4.15811H14.972L16.187 0.412109H0V26.0061H0.1V26.0101ZM20.333 26.0101H24.783L30.549 17.7141C31.664 16.1981 32.47 14.6791 32.979 13.8691H33.079C32.979 14.9841 32.879 16.3991 32.879 17.8141V25.9061H37.43V7.70311H32.98L27.214 15.9991C26.204 17.5151 25.293 19.0341 24.784 19.8441H24.684C24.784 18.7301 24.884 17.3141 24.884 15.8991V7.80711H20.333V26.0201V26.0121V26.0101ZM45.221 26.0101H49.876V11.5441H55.337L56.552 7.70011H39.656V11.5451H45.221V26.0121V26.0101ZM62.723 35.2161V26.0101C63.633 26.3151 64.543 26.4151 65.553 26.4151C71.32 26.4151 75.065 22.4701 75.065 16.8041C75.065 11.1381 71.625 7.19311 65.049 7.19311C62.519 7.19311 60.093 7.69811 58.068 8.30711L58.168 35.2171L62.723 35.2161ZM62.723 22.0651V11.3441C63.433 11.1441 64.038 11.0391 64.848 11.0391C68.188 11.0391 70.309 12.8591 70.309 16.8051C70.309 20.3451 68.589 22.5711 65.149 22.5711C64.239 22.5711 63.529 22.3711 62.719 22.0651H62.723ZM77.795 26.0101H82.246L88.012 17.7141C89.127 16.1981 89.932 14.6791 90.442 13.8691H90.542C90.442 14.9841 90.342 16.3991 90.342 17.8141V25.9061H94.892V7.70311H90.442L84.676 15.9991C83.666 17.5151 82.756 19.0341 82.246 19.8441H82.146C82.246 18.7301 82.346 17.3141 82.346 15.8991V7.80711H77.796V26.0201V26.0121L77.795 26.0101ZM98.537 26.0101H103.193V18.4241H105.923C106.429 18.4241 106.934 18.9291 107.543 20.1441L109.869 26.0101H114.825L111.485 19.0301C110.879 17.8141 110.27 17.1091 109.359 16.8041V16.7041C110.875 15.7941 111.08 13.1641 111.99 11.8481C112.295 11.4431 112.7 11.2421 113.305 11.2421C113.61 11.2421 114.015 11.2421 114.315 11.4421V7.49911C113.81 7.29911 112.9 7.19511 112.395 7.19511C110.775 7.19511 109.764 7.80011 109.055 8.81511C107.539 11.0401 107.539 14.8851 105.31 14.8851H103.184V7.70311H98.529V26.0151L98.537 26.0101ZM125.142 26.4151C127.672 26.4151 129.997 25.6051 131.413 24.5951L130.097 21.4591C128.782 22.1691 127.567 22.6741 125.847 22.6741C122.712 22.6741 120.687 20.6491 120.687 16.9081C120.687 13.5681 122.712 10.9381 126.148 10.9381C127.968 10.9381 129.283 11.4431 130.598 12.3531V8.41011C129.588 7.80411 127.968 7.19511 125.643 7.19511C120.181 7.19511 115.931 11.2401 115.931 17.0061C115.931 22.2661 119.167 26.4131 125.137 26.4131L125.142 26.4171V26.4151Z" fill="white"/>
<path d="M185.084 19.8281C179.623 19.8281 175.272 15.4771 175.168 9.91209C175.168 4.45009 179.619 -0.00390625 185.084 -0.00390625C190.549 -0.00390625 195 4.44609 195 9.91209C195 15.3771 190.549 19.8281 185.084 19.8281ZM185.084 2.41809C180.963 2.41809 177.59 5.79109 177.59 9.91209C177.682 14.1281 180.963 17.4061 185.084 17.4061C189.205 17.4061 192.578 14.0321 192.578 9.91209C192.578 5.79109 189.205 2.41809 185.084 2.41809Z" fill="white"/>
<path d="M183.827 4.83887H185.76V11.3599H183.827V4.83887Z" fill="white"/>
<path d="M190.353 9.42689V11.3599H183.832V9.42689H190.353ZM134.047 26.0109H151.854V22.0659H140.118C141.738 15.5899 151.65 14.1749 151.65 6.99289C151.65 3.14789 149.019 0.316895 143.454 0.316895C140.013 0.316895 136.978 1.32689 134.957 2.34189L136.172 5.98189C137.993 5.07189 140.118 4.26189 142.748 4.26189C144.773 4.26189 146.694 5.1719 146.694 7.49789C146.694 12.7589 135.057 13.1639 134.047 26.0109ZM163.787 19.7399V26.0109H168.338V19.7399H172.183V15.8949H168.338V0.316895H164.997L152.351 16.7049V19.7399H163.787ZM157.516 16.0999L163.991 7.39789C163.991 8.10789 163.791 10.3329 163.791 12.3539V15.9939H160.755C159.845 15.9939 158.125 16.0949 157.52 16.0949L157.516 16.0999Z" fill="white"/>
</g>
<defs>
<clipPath id="clip0_8_864">
<rect width="195" height="35" fill="white"/>
</clipPath>
</defs>
</svg>
