<svg width="20" height="27" viewBox="0 0 20 27" fill="none" xmlns="http://www.w3.org/2000/svg">
<path d="M9.65768 0C4.33239 0 0 4.3324 0 9.6576C0 16.2664 8.64261 25.9684 9.01061 26.3781C9.35621 26.7631 9.95968 26.7624 10.3047 26.3781C10.6726 25.9684 19.3153 16.2664 19.3153 9.6576C19.3151 4.3324 14.9829 0 9.65768 0ZM9.65768 14.5167C6.97837 14.5167 4.79869 12.3369 4.79869 9.6576C4.79869 6.97833 6.97843 4.79864 9.65768 4.79864C12.3369 4.79864 14.5166 6.97839 14.5166 9.65765C14.5166 12.3369 12.3369 14.5167 9.65768 14.5167Z" fill="#919191"/>
</svg>
